<svg version="1.2" xmlns="http://www.w3.org/2000/svg" viewBox="0 0 400 400" width="192" height="192">
    <style>
        .a {
            fill: #e6b457
        }

        .b {
            fill: #fff
        }

        .c {
            fill: #1d282c
        }
    </style>
    <path class="a"
        d="m200 400c-110.6 0-200-89.4-200-200 0-110.6 89.4-200 200-200 110.6 0 200 89.4 200 200 0 110.6-89.4 200-200 200z" />
    <path fill-rule="evenodd" class="b"
        d="m320 198.9q6.8 0 9.8 3 3.3 3 3.3 7.8 0 7.8-4.8 13.7-4.4 6-14.3 6.3-23.9 0.6-42.4-3.6-21.2 44.5-51.4 74.1-29.9 29.3-60.1 29.3-31 0-46.3-36.2-15.2-36.1-15.2-97.6 0-52.6 7.5-94.4 2.7-15.6 7.4-21 5.1-5.6 17.1-5.6 19.7 0 19.7 17 0 1.8-0.6 6.6-9 53.7-9 97.4 0 45.7 7.5 69.6 7.8 23.6 23 23.6 15.5 0 33.8-21.5 18.2-21.6 33.4-54.1-18.2-11.4-27.5-29.3-9.2-18.2-9.2-41.8 0-23.6 7.1-39.8 7.5-16.4 20.1-24.4 12.8-8.1 28.3-8.1 19.2 0 30.2 13.7 11.4 13.8 11.4 37.7 0 34.3-15 75 15.9 2.6 36.2 2.6zm-88.2-58.8q0 29.3 18.9 43.3 11.6-33.5 11.6-55.3 0-12.5-3.3-18.2-3.3-6-8.9-6-8.1 0-13.2 9.6-5.1 9.3-5.1 26.6z" />
    <path class="c"
        d="m236 336c0-6.1 4.9-11 11-11h129c6.1 0 11 4.9 11 11v44.4c0 6.1-4.9 11-11 11h-129c-6.1 0-11-4.9-11-11z" />
    <path fill-rule="evenodd" class="b"
        d="m256.8 361.5v12.5h-6.6v-31.7h18.1v5.5h-11.5v8.2h10.7v5.5zm46.5-3.4q0 3.7-0.9 6.7-0.9 3-2.8 5.2-1.8 2.1-4.7 3.3-2.8 1.1-6.7 1.1-3.9 0-6.7-1.1-2.8-1.2-4.7-3.3-1.8-2.2-2.7-5.2-1-3-1-6.7 0-4.9 1.6-8.6 1.7-3.6 5-5.6 3.4-2.1 8.6-2.1 5.1 0 8.4 2.1 3.4 2 5 5.6 1.6 3.7 1.6 8.6zm-23.1 0q0 3.3 0.8 5.7 0.8 2.4 2.6 3.7 1.8 1.3 4.6 1.3 2.9 0 4.6-1.3 1.8-1.3 2.6-3.7 0.8-2.4 0.8-5.7 0-4.9-1.8-7.8-1.9-2.9-6.1-2.9-2.9 0-4.7 1.3-1.8 1.3-2.6 3.7-0.8 2.4-0.8 5.7zm29.6-15.8h9.3q4.3 0 7.1 1.1 2.8 1 4.1 3.1 1.4 2.1 1.4 5.3 0 2.2-0.8 3.8-0.8 1.6-2.2 2.8-1.3 1.1-2.9 1.8l9.3 13.8h-7.4l-7.6-12.1h-3.6v12.1h-6.7zm8.8 5.5h-2.1v8.6h2.2q3.3 0 4.8-1.2 1.4-1.1 1.4-3.2 0-2.3-1.5-3.2-1.6-1-4.8-1zm40.1 26.2h-6.2l-7.6-24.9h-0.2q0 0.9 0.1 2.7 0.1 1.8 0.2 3.8 0.1 2 0.1 3.6v14.8h-6v-31.7h9.1l7.5 24.2h0.2l7.9-24.2h9.1v31.7h-6.2v-15q0-1.5 0-3.5 0.1-1.9 0.2-3.7 0.1-1.7 0.1-2.6h-0.2z" />
</svg>